<svg width="132" height="132" viewBox="0 0 132 132" fill="none" xmlns="http://www.w3.org/2000/svg">
<path d="M66 1C30.1005 1 1 30.1005 1 66C1 101.899 30.1005 131 66 131C101.899 131 131 101.899 131 66C131 30.1005 101.899 1 66 1Z" stroke="#080809" stroke-width="1.5" stroke-linecap="round" stroke-linejoin="round"/>
<path d="M15.7607 107.249C15.7607 107.249 30.2492 88.75 65.9992 88.75C101.749 88.75 116.244 107.249 116.244 107.249" stroke="#080809" stroke-width="1.5" stroke-linecap="round" stroke-linejoin="round"/>
<path d="M66 66C71.1717 66 76.1316 63.9455 79.7886 60.2886C83.4455 56.6316 85.5 51.6717 85.5 46.5C85.5 41.3283 83.4455 36.3684 79.7886 32.7114C76.1316 29.0545 71.1717 27 66 27C60.8283 27 55.8684 29.0545 52.2114 32.7114C48.5545 36.3684 46.5 41.3283 46.5 46.5C46.5 51.6717 48.5545 56.6316 52.2114 60.2886C55.8684 63.9455 60.8283 66 66 66V66Z" stroke="#080809" stroke-width="1.5" stroke-linecap="round" stroke-linejoin="round"/>
</svg>
